<svg id="visual" viewBox="0 0 900 50" width="900" height="50" xmlns="http://www.w3.org/2000/svg" xmlns:xlink="http://www.w3.org/1999/xlink" version="1.1"><path d="M0 23L11.5 21.3C23 19.7 46 16.3 69 17.3C92 18.3 115 23.7 138.2 25.5C161.3 27.3 184.7 25.7 207.8 25.3C231 25 254 26 277 23.5C300 21 323 15 346 14.3C369 13.7 392 18.3 415.2 19.7C438.3 21 461.7 19 484.8 19.3C508 19.7 531 22.3 554 22.8C577 23.3 600 21.7 623 23.5C646 25.3 669 30.7 692.2 32.5C715.3 34.3 738.7 32.7 761.8 30.2C785 27.7 808 24.3 831 21.8C854 19.3 877 17.7 888.5 16.8L900 16L900 0L888.5 0C877 0 854 0 831 0C808 0 785 0 761.8 0C738.7 0 715.3 0 692.2 0C669 0 646 0 623 0C600 0 577 0 554 0C531 0 508 0 484.8 0C461.7 0 438.3 0 415.2 0C392 0 369 0 346 0C323 0 300 0 277 0C254 0 231 0 207.8 0C184.7 0 161.3 0 138.2 0C115 0 92 0 69 0C46 0 23 0 11.5 0L0 0Z" fill="#f16565" stroke-linecap="round" stroke-linejoin="miter"></path></svg>